<?xml version="1.0" encoding="UTF-8"?>
<!DOCTYPE svg PUBLIC "-//W3C//DTD SVG 1.1//EN" "http://www.w3.org/Graphics/SVG/1.1/DTD/svg11.dtd">
<svg xmlns="http://www.w3.org/2000/svg" version="1.1" width="512px" height="512px" style="shape-rendering:geometricPrecision; text-rendering:geometricPrecision; image-rendering:optimizeQuality; fill-rule:evenodd; clip-rule:evenodd" xmlns:xlink="http://www.w3.org/1999/xlink">
<g><path style="opacity:0.993" fill="#3eb797" d="M -0.5,267.5 C -0.5,196.167 -0.5,124.833 -0.5,53.5C 5.97771,24.8561 23.6444,7.35614 52.5,1C 146.869,0.0121194 241.202,0.345453 335.5,2C 361.746,9.57909 377.58,26.7458 383,53.5C 383.667,124.833 383.667,196.167 383,267.5C 375.542,300.29 355.042,318.123 321.5,321C 272.5,321.333 223.5,321.667 174.5,322C 147.167,345.667 119.833,369.333 92.5,393C 85.8443,398.915 78.511,399.915 70.5,396C 67.5665,393.736 65.3999,390.902 64,387.5C 63.8331,365.492 63.3331,343.492 62.5,321.5C 28.485,318.473 7.48501,300.473 -0.5,267.5 Z M 91.5,128.5 C 112.529,128.699 124.195,139.199 126.5,160C 125.254,179.414 114.921,190.248 95.5,192.5C 76.0697,190.238 65.7364,179.405 64.5,160C 65.8375,142.835 74.8375,132.335 91.5,128.5 Z M 186.5,128.5 C 208.048,128.22 220.048,138.72 222.5,160C 220.943,180.555 209.776,191.388 189,192.5C 170.041,188.696 160.208,177.03 159.5,157.5C 162.664,142.338 171.664,132.672 186.5,128.5 Z M 283.5,128.5 C 304.529,128.699 316.195,139.199 318.5,160C 317.254,179.414 306.921,190.248 287.5,192.5C 268.07,190.238 257.736,179.405 256.5,160C 257.838,142.835 266.838,132.335 283.5,128.5 Z"/></g>
<g><path style="opacity:0.399" fill="#3eb697" d="M 511.5,245.5 C 511.5,295.5 511.5,345.5 511.5,395.5C 503.489,428.502 482.489,446.502 448.5,449.5C 447.667,466.49 447.167,483.49 447,500.5C 442.774,509.03 435.941,512.197 426.5,510C 422.359,508.428 418.692,506.095 415.5,503C 394.5,485.333 373.5,467.667 352.5,450C 319.5,449.667 286.5,449.333 253.5,449C 219.984,446.152 199.484,428.319 192,395.5C 191.5,381.171 191.333,366.837 191.5,352.5C 240.168,352.667 288.834,352.5 337.5,352C 371.221,349.588 395.055,333.088 409,302.5C 412.793,292.87 414.793,282.87 415,272.5C 415.5,245.835 415.667,219.169 415.5,192.5C 429.504,192.333 443.504,192.5 457.5,193C 486.907,198.909 504.907,216.409 511.5,245.5 Z"/></g>
</svg>
