<svg width="183" height="183" viewBox="0 0 183 183" fill="none" xmlns="http://www.w3.org/2000/svg">
<g clip-path="url(#clip0_97_2)">
<path opacity="0.977" fill-rule="evenodd" clip-rule="evenodd" d="M54.8643 -0.178711C60.1066 -0.178711 65.3485 -0.178711 70.5908 -0.178711C70.5908 2.7998 70.5908 5.77833 70.5908 8.75683C66.181 8.69732 61.7729 8.75687 57.3662 8.93554C49.712 10.3939 44.7678 14.8617 42.5332 22.3389C42.4142 23.1728 42.2948 24.0068 42.1758 24.8408C41.9971 36.9924 41.9374 49.1448 41.9971 61.2978C39.0187 61.7743 36.0399 61.7743 33.0615 61.2978C33.0019 48.3109 33.0615 35.3246 33.2402 22.3389C35.6625 10.2071 42.8706 2.70129 54.8643 -0.178711Z" fill="#638F92"/>
<path opacity="0.981" fill-rule="evenodd" clip-rule="evenodd" d="M70.5908 -0.178711C74.8799 -0.178711 79.1689 -0.178711 83.458 -0.178711C83.458 2.7998 83.458 5.77833 83.458 8.75684C79.1689 8.75684 74.8799 8.75684 70.5908 8.75684C70.5908 5.77833 70.5908 2.7998 70.5908 -0.178711Z" fill="#638F92"/>
<path opacity="0.976" fill-rule="evenodd" clip-rule="evenodd" d="M83.458 -0.178711C88.5809 -0.178711 93.7042 -0.178711 98.8272 -0.178711C111.165 2.5695 118.493 10.1945 120.809 22.6963C120.987 35.5629 121.047 48.4299 120.987 61.2978C118.009 61.7743 115.03 61.7743 112.052 61.2978C112.111 49.5022 112.052 37.7073 111.873 25.9131C110.964 16.5453 105.901 10.8861 96.6826 8.93554C92.276 8.75687 87.8679 8.69732 83.458 8.75683C83.458 5.77833 83.458 2.7998 83.458 -0.178711Z" fill="#608D90"/>
<path fill-rule="evenodd" clip-rule="evenodd" d="M33.0615 61.2978C36.0399 61.7743 39.0187 61.7743 41.9971 61.2978C65.3485 61.2978 88.7003 61.2978 112.052 61.2978C115.03 61.7743 118.009 61.7743 120.987 61.2978C126.366 61.1491 131.728 61.3279 137.071 61.834C139.459 62.5535 141.187 64.0428 142.254 66.3017C142.786 86.0579 142.964 105.835 142.79 125.634C125.622 127.373 116.091 136.845 114.196 154.049C114.284 156.872 114.761 159.612 115.626 162.27C115.544 162.412 115.425 162.471 115.269 162.448C82.5047 162.508 49.741 162.448 16.9775 162.27C13.2671 161.06 11.3012 158.498 11.0801 154.585C10.7297 125.386 10.8489 96.1965 11.4375 67.0166C12.4502 64.5743 14.1777 62.8465 16.6201 61.834C22.0849 61.3339 27.5654 61.1552 33.0615 61.2978Z" fill="white"/>
<path fill-rule="evenodd" clip-rule="evenodd" d="M40.2099 107.763C45.7307 107.619 47.5775 110.121 45.75 115.269C43.6047 117.327 41.2815 117.565 38.7802 115.983C37.4313 114.445 37.0146 112.658 37.5293 110.622C38.2541 109.481 39.1477 108.528 40.2099 107.763Z" fill="#638F92"/>
<path fill-rule="evenodd" clip-rule="evenodd" d="M63.7999 107.763C68.3263 107.582 70.2921 109.727 69.6973 114.196C68.3391 116.678 66.2543 117.571 63.4424 116.877C60.6013 115.025 59.9461 112.583 61.4766 109.55C62.179 108.817 62.9535 108.221 63.7999 107.763Z" fill="#638F92"/>
<path fill-rule="evenodd" clip-rule="evenodd" d="M87.0323 107.763C92.553 107.619 94.3998 110.121 92.5723 115.269C90.1687 117.495 87.6667 117.614 85.0665 115.626C83.0667 112.354 83.7218 109.733 87.0323 107.763Z" fill="#638F92"/>
<path fill-rule="evenodd" clip-rule="evenodd" d="M110.265 107.763C114.814 107.369 116.899 109.394 116.519 113.839C115.344 116.618 113.259 117.631 110.265 116.877C107.779 115.504 106.886 113.419 107.584 110.622C108.309 109.481 109.202 108.528 110.265 107.763Z" fill="#638F92"/>
<path opacity="0.993" fill-rule="evenodd" clip-rule="evenodd" d="M142.79 125.634C155.375 126.135 164.251 132.091 169.418 143.505C174.191 158.377 170.199 170.232 157.444 179.068C154.239 180.79 150.904 182.041 147.437 182.821C144.339 182.821 141.241 182.821 138.144 182.821C126.718 180.333 119.093 173.542 115.269 162.448C115.425 162.471 115.544 162.412 115.626 162.27C114.761 159.612 114.284 156.872 114.196 154.049C116.091 136.845 125.622 127.373 142.79 125.634Z" fill="#628F92"/>
<path fill-rule="evenodd" clip-rule="evenodd" d="M139.931 134.927C149.942 134.63 154.171 139.395 152.619 149.224C152.084 150.534 151.369 151.725 150.475 152.798C148.33 153.989 146.662 155.657 145.471 157.802C145.352 159.827 145.232 161.852 145.113 163.878C143.533 166.222 141.984 166.222 140.467 163.878C139.598 159.658 140.431 155.846 142.969 152.44C144.517 151.13 146.067 149.819 147.615 148.509C149.257 145.243 148.601 142.562 145.649 140.467C140.035 139.021 136.997 141.225 136.535 147.079C133.918 148.517 132.429 147.742 132.067 144.756C132.79 139.926 135.411 136.65 139.931 134.927Z" fill="white"/>
<path fill-rule="evenodd" clip-rule="evenodd" d="M141.003 166.38C145.109 165.899 146.837 167.686 146.186 171.741C143.467 174.743 141.084 174.504 139.037 171.026C138.799 170.312 138.799 169.597 139.037 168.882C139.633 167.99 140.288 167.156 141.003 166.38Z" fill="white"/>
<path fill-rule="evenodd" clip-rule="evenodd" d="M142.075 168.882C143.574 168.847 144.05 169.502 143.505 170.848C141.799 171.137 141.323 170.482 142.075 168.882Z" fill="#628F92"/>
</g>
<defs>
<clipPath id="clip0_97_2">
<rect width="183" height="183" fill="white"/>
</clipPath>
</defs>
</svg>
